<mxfile host="app.diagrams.net" modified="2023-11-09T22:32:12.979Z" agent="Mozilla/5.0 (X11; Ubuntu; Linux x86_64; rv:109.0) Gecko/20100101 Firefox/118.0" etag="PVVdSoXuLEkgBESvPUR_" version="22.1.0" type="device">
  <diagram name="Page-1" id="as7Ecl3yVJfj_8cUSPL2">
    <mxGraphModel dx="1360" dy="766" grid="1" gridSize="10" guides="1" tooltips="1" connect="1" arrows="1" fold="1" page="0" pageScale="1" pageWidth="827" pageHeight="1169" math="0" shadow="0">
      <root>
        <mxCell id="0" />
        <mxCell id="1" parent="0" />
        <mxCell id="NTTUGfz7Yi68SfkPyvjI-29" value="&lt;h1&gt;Feature Space&lt;br&gt;&lt;/h1&gt;&lt;p style=&quot;font-size: 23px;&quot;&gt;IMG = [e&lt;sub&gt;1&lt;/sub&gt;, e&lt;sub&gt;2&lt;/sub&gt;, ..., e&lt;sub&gt;n&lt;/sub&gt;]&lt;sup&gt;nx3&lt;/sup&gt;&lt;/p&gt;&lt;p style=&quot;font-size: 23px;&quot;&gt;G = [G&lt;sub&gt;1&lt;/sub&gt;&lt;font style=&quot;font-size: 23px;&quot;&gt;[s]&lt;/font&gt;, G&lt;sub&gt;2&lt;/sub&gt;[s], ..., G&lt;sub&gt;3&lt;/sub&gt;[s]]&lt;sup&gt;MxL&lt;br&gt;&lt;/sup&gt;&lt;/p&gt;&lt;p style=&quot;font-size: 23px;&quot;&gt;E = [[a&lt;sub&gt;1&lt;/sub&gt;, ...., a&lt;sub&gt;k&lt;/sub&gt;], [a&lt;sub&gt;k&lt;/sub&gt;, ..., a&lt;sub&gt;k&lt;/sub&gt; ]]&lt;sup&gt;2xk&lt;/sup&gt;&lt;/p&gt;&lt;p style=&quot;font-size: 23px;&quot;&gt;L = l&lt;sub&gt;1&lt;/sub&gt;&lt;br&gt;&lt;/p&gt;" style="text;html=1;strokeColor=none;fillColor=none;spacing=5;spacingTop=-20;whiteSpace=wrap;overflow=hidden;rounded=0;" vertex="1" parent="1">
          <mxGeometry x="470" y="205" width="380" height="290" as="geometry" />
        </mxCell>
        <mxCell id="NTTUGfz7Yi68SfkPyvjI-31" value="" style="group" vertex="1" connectable="0" parent="1">
          <mxGeometry x="50" y="160" width="420" height="380" as="geometry" />
        </mxCell>
        <mxCell id="NTTUGfz7Yi68SfkPyvjI-25" value="&lt;sub&gt;&lt;font style=&quot;font-size: 19px;&quot;&gt;e&lt;/font&gt;9&lt;/sub&gt;" style="text;html=1;strokeColor=none;fillColor=none;align=center;verticalAlign=middle;whiteSpace=wrap;rounded=0;" vertex="1" parent="NTTUGfz7Yi68SfkPyvjI-31">
          <mxGeometry x="60" y="90" width="60" height="30" as="geometry" />
        </mxCell>
        <mxCell id="NTTUGfz7Yi68SfkPyvjI-30" value="" style="group" vertex="1" connectable="0" parent="NTTUGfz7Yi68SfkPyvjI-31">
          <mxGeometry x="-20" width="400" height="380" as="geometry" />
        </mxCell>
        <mxCell id="NTTUGfz7Yi68SfkPyvjI-1" value="" style="rounded=0;whiteSpace=wrap;html=1;dashed=1;" vertex="1" parent="NTTUGfz7Yi68SfkPyvjI-30">
          <mxGeometry x="90" y="40" width="260" height="260" as="geometry" />
        </mxCell>
        <mxCell id="NTTUGfz7Yi68SfkPyvjI-2" value="" style="ellipse;whiteSpace=wrap;html=1;aspect=fixed;fillColor=#f8cecc;strokeColor=#b85450;" vertex="1" parent="NTTUGfz7Yi68SfkPyvjI-30">
          <mxGeometry x="50" width="80" height="80" as="geometry" />
        </mxCell>
        <mxCell id="NTTUGfz7Yi68SfkPyvjI-3" value="" style="ellipse;whiteSpace=wrap;html=1;aspect=fixed;fillColor=#dae8fc;strokeColor=#6c8ebf;" vertex="1" parent="NTTUGfz7Yi68SfkPyvjI-30">
          <mxGeometry x="50" y="260" width="80" height="80" as="geometry" />
        </mxCell>
        <mxCell id="NTTUGfz7Yi68SfkPyvjI-4" value="" style="ellipse;whiteSpace=wrap;html=1;aspect=fixed;fillColor=#dae8fc;strokeColor=#6c8ebf;" vertex="1" parent="NTTUGfz7Yi68SfkPyvjI-30">
          <mxGeometry x="310" width="80" height="80" as="geometry" />
        </mxCell>
        <mxCell id="NTTUGfz7Yi68SfkPyvjI-5" value="" style="ellipse;whiteSpace=wrap;html=1;aspect=fixed;fillColor=#fff2cc;strokeColor=#d6b656;" vertex="1" parent="NTTUGfz7Yi68SfkPyvjI-30">
          <mxGeometry x="310" y="260" width="80" height="80" as="geometry" />
        </mxCell>
        <mxCell id="NTTUGfz7Yi68SfkPyvjI-6" value="" style="ellipse;whiteSpace=wrap;html=1;aspect=fixed;fillColor=#fff2cc;strokeColor=#d6b656;" vertex="1" parent="NTTUGfz7Yi68SfkPyvjI-30">
          <mxGeometry x="180" y="130" width="80" height="80" as="geometry" />
        </mxCell>
        <mxCell id="NTTUGfz7Yi68SfkPyvjI-7" value="" style="endArrow=none;dashed=1;html=1;dashPattern=1 3;strokeWidth=2;rounded=0;" edge="1" parent="NTTUGfz7Yi68SfkPyvjI-30" target="NTTUGfz7Yi68SfkPyvjI-4">
          <mxGeometry width="50" height="50" relative="1" as="geometry">
            <mxPoint x="250" y="140.10000000000002" as="sourcePoint" />
            <mxPoint x="320.1" y="79.99999999999997" as="targetPoint" />
          </mxGeometry>
        </mxCell>
        <mxCell id="NTTUGfz7Yi68SfkPyvjI-8" value="" style="endArrow=none;dashed=1;html=1;dashPattern=1 3;strokeWidth=2;rounded=0;" edge="1" parent="NTTUGfz7Yi68SfkPyvjI-30">
          <mxGeometry width="50" height="50" relative="1" as="geometry">
            <mxPoint x="120" y="272.1" as="sourcePoint" />
            <mxPoint x="192" y="200" as="targetPoint" />
          </mxGeometry>
        </mxCell>
        <mxCell id="NTTUGfz7Yi68SfkPyvjI-10" value="" style="endArrow=none;dashed=1;html=1;dashPattern=1 3;strokeWidth=2;rounded=0;" edge="1" parent="NTTUGfz7Yi68SfkPyvjI-30">
          <mxGeometry width="50" height="50" relative="1" as="geometry">
            <mxPoint x="120" y="70" as="sourcePoint" />
            <mxPoint x="190" y="140" as="targetPoint" />
          </mxGeometry>
        </mxCell>
        <mxCell id="NTTUGfz7Yi68SfkPyvjI-11" value="" style="endArrow=none;dashed=1;html=1;dashPattern=1 3;strokeWidth=2;rounded=0;" edge="1" parent="NTTUGfz7Yi68SfkPyvjI-30">
          <mxGeometry width="50" height="50" relative="1" as="geometry">
            <mxPoint x="250" y="200" as="sourcePoint" />
            <mxPoint x="320" y="270" as="targetPoint" />
          </mxGeometry>
        </mxCell>
        <mxCell id="NTTUGfz7Yi68SfkPyvjI-14" value="&lt;sub&gt;&lt;font style=&quot;font-size: 19px;&quot;&gt;e&lt;/font&gt;1&lt;/sub&gt;" style="text;html=1;strokeColor=none;fillColor=none;align=center;verticalAlign=middle;whiteSpace=wrap;rounded=0;" vertex="1" parent="NTTUGfz7Yi68SfkPyvjI-30">
          <mxGeometry x="190" y="10" width="60" height="30" as="geometry" />
        </mxCell>
        <mxCell id="NTTUGfz7Yi68SfkPyvjI-15" value="&lt;sub&gt;&lt;font style=&quot;font-size: 19px;&quot;&gt;e&lt;/font&gt;2&lt;/sub&gt;" style="text;html=1;strokeColor=none;fillColor=none;align=center;verticalAlign=middle;whiteSpace=wrap;rounded=0;" vertex="1" parent="NTTUGfz7Yi68SfkPyvjI-30">
          <mxGeometry x="40" y="155" width="60" height="30" as="geometry" />
        </mxCell>
        <mxCell id="NTTUGfz7Yi68SfkPyvjI-16" value="&lt;sub&gt;&lt;font style=&quot;font-size: 19px;&quot;&gt;e&lt;/font&gt;3&lt;/sub&gt;" style="text;html=1;strokeColor=none;fillColor=none;align=center;verticalAlign=middle;whiteSpace=wrap;rounded=0;" vertex="1" parent="NTTUGfz7Yi68SfkPyvjI-30">
          <mxGeometry x="190" y="300" width="60" height="30" as="geometry" />
        </mxCell>
        <mxCell id="NTTUGfz7Yi68SfkPyvjI-17" value="&lt;sub&gt;&lt;font style=&quot;font-size: 19px;&quot;&gt;e&lt;/font&gt;4&lt;/sub&gt;" style="text;html=1;strokeColor=none;fillColor=none;align=center;verticalAlign=middle;whiteSpace=wrap;rounded=0;" vertex="1" parent="NTTUGfz7Yi68SfkPyvjI-30">
          <mxGeometry x="340" y="155" width="60" height="30" as="geometry" />
        </mxCell>
        <mxCell id="NTTUGfz7Yi68SfkPyvjI-18" value="&lt;sub&gt;&lt;font style=&quot;font-size: 19px;&quot;&gt;e&lt;/font&gt;5&lt;/sub&gt;" style="text;html=1;strokeColor=none;fillColor=none;align=center;verticalAlign=middle;whiteSpace=wrap;rounded=0;" vertex="1" parent="NTTUGfz7Yi68SfkPyvjI-30">
          <mxGeometry x="110" y="100" width="60" height="30" as="geometry" />
        </mxCell>
        <mxCell id="NTTUGfz7Yi68SfkPyvjI-19" value="&lt;sub&gt;&lt;font style=&quot;font-size: 19px;&quot;&gt;e&lt;/font&gt;6&lt;/sub&gt;" style="text;html=1;strokeColor=none;fillColor=none;align=center;verticalAlign=middle;whiteSpace=wrap;rounded=0;" vertex="1" parent="NTTUGfz7Yi68SfkPyvjI-30">
          <mxGeometry x="110" y="200" width="60" height="30" as="geometry" />
        </mxCell>
        <mxCell id="NTTUGfz7Yi68SfkPyvjI-20" value="&lt;sub&gt;&lt;font style=&quot;font-size: 19px;&quot;&gt;e&lt;/font&gt;8&lt;/sub&gt;" style="text;html=1;strokeColor=none;fillColor=none;align=center;verticalAlign=middle;whiteSpace=wrap;rounded=0;" vertex="1" parent="NTTUGfz7Yi68SfkPyvjI-30">
          <mxGeometry x="270" y="200" width="60" height="30" as="geometry" />
        </mxCell>
        <mxCell id="NTTUGfz7Yi68SfkPyvjI-21" value="&lt;sub&gt;&lt;font style=&quot;font-size: 19px;&quot;&gt;e&lt;/font&gt;7&lt;/sub&gt;" style="text;html=1;strokeColor=none;fillColor=none;align=center;verticalAlign=middle;whiteSpace=wrap;rounded=0;" vertex="1" parent="NTTUGfz7Yi68SfkPyvjI-30">
          <mxGeometry x="270" y="100" width="60" height="30" as="geometry" />
        </mxCell>
        <mxCell id="NTTUGfz7Yi68SfkPyvjI-22" value="" style="endArrow=none;dashed=1;html=1;dashPattern=1 3;strokeWidth=2;rounded=0;" edge="1" parent="NTTUGfz7Yi68SfkPyvjI-30">
          <mxGeometry width="50" height="50" relative="1" as="geometry">
            <mxPoint y="120" as="sourcePoint" />
            <mxPoint x="50" y="70" as="targetPoint" />
          </mxGeometry>
        </mxCell>
        <mxCell id="NTTUGfz7Yi68SfkPyvjI-23" value="" style="endArrow=none;dashed=1;html=1;dashPattern=1 3;strokeWidth=2;rounded=0;" edge="1" parent="NTTUGfz7Yi68SfkPyvjI-30">
          <mxGeometry width="50" height="50" relative="1" as="geometry">
            <mxPoint y="370" as="sourcePoint" />
            <mxPoint x="50" y="320" as="targetPoint" />
          </mxGeometry>
        </mxCell>
        <mxCell id="NTTUGfz7Yi68SfkPyvjI-24" value="" style="endArrow=none;dashed=1;html=1;dashPattern=1 3;strokeWidth=2;rounded=0;" edge="1" parent="NTTUGfz7Yi68SfkPyvjI-30">
          <mxGeometry width="50" height="50" relative="1" as="geometry">
            <mxPoint x="270" y="380" as="sourcePoint" />
            <mxPoint x="320" y="330" as="targetPoint" />
          </mxGeometry>
        </mxCell>
        <mxCell id="NTTUGfz7Yi68SfkPyvjI-26" value="&lt;sub&gt;&lt;font style=&quot;font-size: 19px;&quot;&gt;e&lt;/font&gt;10&lt;/sub&gt;" style="text;html=1;strokeColor=none;fillColor=none;align=center;verticalAlign=middle;whiteSpace=wrap;rounded=0;" vertex="1" parent="NTTUGfz7Yi68SfkPyvjI-30">
          <mxGeometry x="20" y="350" width="60" height="30" as="geometry" />
        </mxCell>
        <mxCell id="NTTUGfz7Yi68SfkPyvjI-27" value="&lt;sub&gt;&lt;font style=&quot;font-size: 19px;&quot;&gt;e&lt;/font&gt;9&lt;/sub&gt;" style="text;html=1;strokeColor=none;fillColor=none;align=center;verticalAlign=middle;whiteSpace=wrap;rounded=0;" vertex="1" parent="NTTUGfz7Yi68SfkPyvjI-30">
          <mxGeometry x="310" y="350" width="60" height="30" as="geometry" />
        </mxCell>
        <mxCell id="NTTUGfz7Yi68SfkPyvjI-32" value="a&lt;sub&gt;1&lt;/sub&gt;" style="text;html=1;strokeColor=none;fillColor=none;align=center;verticalAlign=middle;whiteSpace=wrap;rounded=0;" vertex="1" parent="NTTUGfz7Yi68SfkPyvjI-30">
          <mxGeometry x="60" y="25" width="60" height="30" as="geometry" />
        </mxCell>
        <mxCell id="NTTUGfz7Yi68SfkPyvjI-33" value="a&lt;sub&gt;2&lt;/sub&gt;" style="text;html=1;strokeColor=none;fillColor=none;align=center;verticalAlign=middle;whiteSpace=wrap;rounded=0;" vertex="1" parent="NTTUGfz7Yi68SfkPyvjI-30">
          <mxGeometry x="320" y="25" width="60" height="30" as="geometry" />
        </mxCell>
        <mxCell id="NTTUGfz7Yi68SfkPyvjI-34" value="a&lt;sub&gt;3&lt;/sub&gt;" style="text;html=1;strokeColor=none;fillColor=none;align=center;verticalAlign=middle;whiteSpace=wrap;rounded=0;" vertex="1" parent="NTTUGfz7Yi68SfkPyvjI-30">
          <mxGeometry x="320" y="285" width="60" height="30" as="geometry" />
        </mxCell>
        <mxCell id="NTTUGfz7Yi68SfkPyvjI-91" value="a&lt;sub&gt;4&lt;/sub&gt;" style="text;html=1;strokeColor=none;fillColor=none;align=center;verticalAlign=middle;whiteSpace=wrap;rounded=0;" vertex="1" parent="NTTUGfz7Yi68SfkPyvjI-30">
          <mxGeometry x="60" y="285" width="60" height="30" as="geometry" />
        </mxCell>
        <mxCell id="NTTUGfz7Yi68SfkPyvjI-92" value="a&lt;sub&gt;5&lt;/sub&gt;" style="text;html=1;strokeColor=none;fillColor=none;align=center;verticalAlign=middle;whiteSpace=wrap;rounded=0;" vertex="1" parent="NTTUGfz7Yi68SfkPyvjI-30">
          <mxGeometry x="190" y="155" width="60" height="30" as="geometry" />
        </mxCell>
        <mxCell id="NTTUGfz7Yi68SfkPyvjI-93" value="&lt;sub&gt;&lt;font style=&quot;font-size: 19px;&quot;&gt;e&lt;/font&gt;11&lt;/sub&gt;" style="text;html=1;strokeColor=none;fillColor=none;align=center;verticalAlign=middle;whiteSpace=wrap;rounded=0;" vertex="1" parent="NTTUGfz7Yi68SfkPyvjI-30">
          <mxGeometry x="-10" y="50" width="60" height="30" as="geometry" />
        </mxCell>
      </root>
    </mxGraphModel>
  </diagram>
</mxfile>
